<?xml version="1.0" encoding="utf-8"?>
<!-- Generator: Adobe Illustrator 24.2.1, SVG Export Plug-In . SVG Version: 6.00 Build 0)  -->
<!DOCTYPE svg PUBLIC "-//W3C//DTD SVG 1.1//EN" "http://www.w3.org/Graphics/SVG/1.1/DTD/svg11.dtd" [
	<!ENTITY ns_extend "http://ns.adobe.com/Extensibility/1.0/">
	<!ENTITY ns_ai "http://ns.adobe.com/AdobeIllustrator/10.0/">
	<!ENTITY ns_graphs "http://ns.adobe.com/Graphs/1.0/">
	<!ENTITY ns_vars "http://ns.adobe.com/Variables/1.0/">
	<!ENTITY ns_imrep "http://ns.adobe.com/ImageReplacement/1.0/">
	<!ENTITY ns_sfw "http://ns.adobe.com/SaveForWeb/1.0/">
	<!ENTITY ns_custom "http://ns.adobe.com/GenericCustomNamespace/1.0/">
	<!ENTITY ns_adobe_xpath "http://ns.adobe.com/XPath/1.0/">
]>
<svg version="1.1"
	 id="svg2" xmlns:x="&ns_extend;" xmlns:i="&ns_ai;" xmlns:graph="&ns_graphs;" xmlns:cc="http://creativecommons.org/ns#" xmlns:dc="http://purl.org/dc/elements/1.1/" xmlns:rdf="http://www.w3.org/1999/02/22-rdf-syntax-ns#" xmlns:svg="http://www.w3.org/2000/svg"
	 xmlns="http://www.w3.org/2000/svg" xmlns:xlink="http://www.w3.org/1999/xlink" x="0px" y="0px" viewBox="0 0 100 100"
	 style="enable-background:new 0 0 100 100;" xml:space="preserve">
<style type="text/css">
	.st0{clip-path:url(#SVGID_2_);fill:#2C2A7C;}
	.st1{clip-path:url(#SVGID_4_);fill:#2C2A7C;}
	.st2{clip-path:url(#SVGID_6_);}
	.st3{clip-path:url(#SVGID_8_);fill:#2C2A7C;}
	.st4{clip-path:url(#SVGID_10_);fill:#FFFFFF;}
	.st5{clip-path:url(#SVGID_12_);fill:#FFFFFF;}
	.st6{clip-path:url(#SVGID_14_);fill:#FFFFFF;}
	.st7{clip-path:url(#SVGID_16_);fill:#E81E25;}
	.st8{clip-path:url(#SVGID_18_);fill:#E81E25;}
	.st9{clip-path:url(#SVGID_20_);fill:#E81E25;}
	.st10{fill:#FFFFFF;}
	.st11{fill:#C8102E;}
</style>
<metadata  id="metadata8">
	<rdf:RDF>
		<cc:Work  rdf:about="">
			<dc:format>image/svg+xml</dc:format>
			<dc:type  rdf:resource="http://purl.org/dc/dcmitype/StillImage"></dc:type>
			<dc:title></dc:title>
		</cc:Work>
	</rdf:RDF>
	<sfw  xmlns="&ns_sfw;">
		<slices></slices>
		<sliceSourceBounds  bottomLeftOrigin="true" height="58290.8" width="89995.4" x="-35972.7" y="-47628.6"></sliceSourceBounds>
	</sfw>
</metadata>
<g>
	<g>
		<defs>
			<circle id="SVGID_1_" cx="50" cy="50" r="50"/>
		</defs>
		<clipPath id="SVGID_2_">
			<use xlink:href="#SVGID_1_"  style="overflow:visible;"/>
		</clipPath>
		<rect x="-8.3" y="64.6" class="st0" width="117.5" height="68.5"/>
	</g>
</g>
<g>
	<g>
		<defs>
			<circle id="SVGID_3_" cx="50" cy="50" r="50"/>
		</defs>
		<clipPath id="SVGID_4_">
			<use xlink:href="#SVGID_3_"  style="overflow:visible;"/>
		</clipPath>
		<rect x="-12.6" y="-26" class="st1" width="117.5" height="91.2"/>
	</g>
</g>
<g>
	<g>
		<defs>
			<circle id="SVGID_5_" cx="50" cy="50" r="50"/>
		</defs>
		<clipPath id="SVGID_6_">
			<use xlink:href="#SVGID_5_"  style="overflow:visible;"/>
		</clipPath>
		<g class="st2">
			<g>
				<g>
					<g>
						<defs>
							<rect id="SVGID_7_" x="-3.8" y="13.5" width="105.3" height="61.4"/>
						</defs>
						<clipPath id="SVGID_8_">
							<use xlink:href="#SVGID_7_"  style="overflow:visible;"/>
						</clipPath>
						<rect x="-3.8" y="13.5" class="st3" width="105.3" height="61.4"/>
					</g>
				</g>
				<g>
					<g>
						<defs>
							<rect id="SVGID_9_" x="-3.8" y="13.5" width="105.3" height="61.4"/>
						</defs>
						<clipPath id="SVGID_10_">
							<use xlink:href="#SVGID_9_"  style="overflow:visible;"/>
						</clipPath>
						<polygon class="st4" points="19.3,13.5 19.3,22.8 -3.8,22.8 -3.8,32 19.3,32 19.3,41.2 28.6,41.2 28.6,32 51.6,32 51.6,22.8 
							28.6,22.8 28.6,13.5 						"/>
					</g>
				</g>
				<g>
					<g>
						<defs>
							<rect id="SVGID_11_" x="-3.8" y="13.5" width="105.3" height="61.4"/>
						</defs>
						<clipPath id="SVGID_12_">
							<use xlink:href="#SVGID_11_"  style="overflow:visible;"/>
						</clipPath>
						<polygon class="st5" points="-3.8,13.5 -3.8,16.6 45.4,41.2 51.6,41.2 51.6,38.1 2.4,13.5 						"/>
					</g>
				</g>
				<g>
					<g>
						<defs>
							<rect id="SVGID_13_" x="-3.8" y="13.5" width="105.3" height="61.4"/>
						</defs>
						<clipPath id="SVGID_14_">
							<use xlink:href="#SVGID_13_"  style="overflow:visible;"/>
						</clipPath>
						<polygon class="st6" points="45.4,13.5 -3.8,38.1 -3.8,41.2 2.4,41.2 51.6,16.6 51.6,13.5 						"/>
					</g>
				</g>
				<g>
					<g>
						<defs>
							<rect id="SVGID_15_" x="-3.8" y="13.5" width="105.3" height="61.4"/>
						</defs>
						<clipPath id="SVGID_16_">
							<use xlink:href="#SVGID_15_"  style="overflow:visible;"/>
						</clipPath>
						<polygon class="st7" points="21.2,13.5 21.2,24.6 -3.8,24.6 -3.8,30.1 21.2,30.1 21.2,41.2 26.7,41.2 26.7,30.1 51.6,30.1 
							51.6,24.6 26.7,24.6 26.7,13.5 						"/>
					</g>
				</g>
				<g>
					<g>
						<defs>
							<rect id="SVGID_17_" x="-3.8" y="13.5" width="105.3" height="61.4"/>
						</defs>
						<clipPath id="SVGID_18_">
							<use xlink:href="#SVGID_17_"  style="overflow:visible;"/>
						</clipPath>
						<path class="st8" d="M-3.8,13.5v2.1l14.3,7.2h4.1L-3.8,13.5z M47.5,13.5L29,22.8h4.1l18.5-9.2L47.5,13.5L47.5,13.5z"/>
					</g>
				</g>
				<g>
					<g>
						<defs>
							<rect id="SVGID_19_" x="-3.8" y="13.5" width="105.3" height="61.4"/>
						</defs>
						<clipPath id="SVGID_20_">
							<use xlink:href="#SVGID_19_"  style="overflow:visible;"/>
						</clipPath>
						<path class="st9" d="M14.7,32l-18.5,9.2h4.1L18.8,32H14.7z M33.2,32l18.5,9.2v-2.1L37.3,32H33.2z"/>
					</g>
				</g>
			</g>
		</g>
	</g>
</g>
<g id="Southern_Cross">
	<g id="Gamma_Crucis">
		<g transform="translate(900,120) scale(45.4)">
			<g id="Pentagram">
				<g id="Arm" transform="translate(0,-0.324925)">
					<path class="st10" d="M77.5,27.4v2.3l4.7-2.3H77.5z"/>
					<path class="st10" d="M78.4,30.1L77,28.2l5.1-0.9L78.4,30.1z"/>
				</g>
				<g transform="scale(-1,1)">
					<g id="Arm_1_" transform="translate(0,-0.324925)">
						<path class="st10" d="M77.5,27.4v2.3l-4.7-2.3H77.5z"/>
						<path class="st10" d="M76.6,30.1l1.4-1.9l-5.1-0.9L76.6,30.1z"/>
					</g>
				</g>
				<g transform="rotate(72,0,0)">
					<g id="Arm_2_" transform="translate(0,-0.324925)">
						<path class="st10" d="M79,28.4l-2.2,0.7l3.7,3.7L79,28.4z"/>
						<path class="st10" d="M76.6,30.1l1.4-1.9l2.4,4.6L76.6,30.1z"/>
					</g>
				</g>
				<g transform="rotate(-72,0,0)">
					<g id="Arm_3_" transform="translate(0,-0.324925)">
						<path class="st10" d="M76.1,28.4l2.2,0.7L77.5,24L76.1,28.4z"/>
						<path class="st10" d="M79,28.4l-2.2,0.7l0.8-5.2L79,28.4z"/>
					</g>
				</g>
				<g transform="rotate(-72,0,0) scale(-1,1)">
					<g id="Arm_4_" transform="translate(0,-0.324925)">
						<path class="st10" d="M76.1,28.4l2.2,0.7l-3.7,3.7L76.1,28.4z"/>
						<path class="st10" d="M78.4,30.1L77,28.2l-2.4,4.6L78.4,30.1z"/>
					</g>
				</g>
			</g>
		</g>
		<g transform="translate(900,120) scale(30)">
			<g id="Pentagram_1_">
				<g id="Arm_5_" transform="translate(0,-0.324925)">
					<path class="st11" d="M77.5,27.9v1.5l3.1-1.5H77.5z"/>
					<path class="st11" d="M78.1,29.7l-0.9-1.2l3.4-0.6L78.1,29.7z"/>
				</g>
				<g transform="scale(-1,1)">
					<g id="Arm_6_" transform="translate(0,-0.324925)">
						<path class="st11" d="M77.5,27.9v1.5l-3.1-1.5H77.5z"/>
						<path class="st11" d="M76.9,29.7l0.9-1.2l-3.4-0.6L76.9,29.7z"/>
					</g>
				</g>
				<g transform="rotate(72,0,0)">
					<g id="Arm_7_" transform="translate(0,-0.324925)">
						<path class="st11" d="M78.5,28.6L77,29.1l2.4,2.5L78.5,28.6z"/>
						<path class="st11" d="M76.9,29.7l0.9-1.2l1.6,3.1L76.9,29.7z"/>
					</g>
				</g>
				<g transform="rotate(-72,0,0)">
					<g id="Arm_8_" transform="translate(0,-0.324925)">
						<path class="st11" d="M76.6,28.6l1.5,0.5l-0.5-3.4L76.6,28.6z"/>
						<path class="st11" d="M78.5,28.6L77,29.1l0.5-3.4L78.5,28.6z"/>
					</g>
				</g>
				<g transform="rotate(-72,0,0) scale(-1,1)">
					<g id="Arm_9_" transform="translate(0,-0.324925)">
						<path class="st11" d="M76.6,28.6l1.5,0.5l-2.4,2.5L76.6,28.6z"/>
						<path class="st11" d="M78.1,29.7l-0.9-1.2l-1.6,3.1L78.1,29.7z"/>
					</g>
				</g>
			</g>
		</g>
	</g>
	<g transform="rotate(82,900,240)">
		<g id="Delta_Crucis">
			<g transform="translate(900,120) rotate(-82) scale(40.4)">
				<g id="Pentagram_2_">
					<g id="Arm_10_" transform="translate(0,-0.324925)">
						<path class="st10" d="M587.1,1014.6l2.1,0.3l-1.5-4.4L587.1,1014.6z"/>
						<path class="st10" d="M589.6,1014.1l-1.8,1l-0.1-4.6L589.6,1014.1z"/>
					</g>
					<g transform="scale(-1,1)">
						<g id="Arm_11_" transform="translate(0,-0.324925)">
							<path class="st10" d="M587.1,1014.6l2.1,0.3l-2.6,3.8L587.1,1014.6z"/>
							<path class="st10" d="M589.4,1015.7l-1.5-1.4l-1.4,4.4L589.4,1015.7z"/>
						</g>
					</g>
					<g transform="rotate(72,0,0)">
						<g id="Arm_12_" transform="translate(0,-0.324925)">
							<path class="st10" d="M588.2,1013.4l0.4,2l3.7-2.8L588.2,1013.4z"/>
							<path class="st10" d="M589.4,1015.7l-1.5-1.4l4.4-1.5L589.4,1015.7z"/>
						</g>
					</g>
					<g transform="rotate(-72,0,0)">
						<g id="Arm_13_" transform="translate(0,-0.324925)">
							<path class="st10" d="M587.8,1016l0.9-1.9h-4.6L587.8,1016z"/>
							<path class="st10" d="M588.2,1013.4l0.4,2l-4.5-1.3L588.2,1013.4z"/>
						</g>
					</g>
					<g transform="rotate(-72,0,0) scale(-1,1)">
						<g id="Arm_14_" transform="translate(0,-0.324925)">
							<path class="st10" d="M587.8,1016l0.9-1.9l2.8,3.7L587.8,1016z"/>
							<path class="st10" d="M589.6,1014.1l-1.8,1l3.8,2.7L589.6,1014.1z"/>
						</g>
					</g>
				</g>
			</g>
			<g transform="translate(900,120) rotate(-82) scale(25)">
				<g id="Pentagram_3_">
					<g id="Arm_15_" transform="translate(0,-0.324925)">
						<path class="st11" d="M587.6,1014.6l1.3,0.2l-0.9-2.7L587.6,1014.6z"/>
						<path class="st11" d="M589.1,1014.4l-1.1,0.6l-0.1-2.9L589.1,1014.4z"/>
					</g>
					<g transform="scale(-1,1)">
						<g id="Arm_16_" transform="translate(0,-0.324925)">
							<path class="st11" d="M587.6,1014.6l1.3,0.2l-1.6,2.4L587.6,1014.6z"/>
							<path class="st11" d="M589,1015.3l-0.9-0.9l-0.9,2.7L589,1015.3z"/>
						</g>
					</g>
					<g transform="rotate(72,0,0)">
						<g id="Arm_17_" transform="translate(0,-0.324925)">
							<path class="st11" d="M588.2,1013.9l0.2,1.3l2.3-1.7L588.2,1013.9z"/>
							<path class="st11" d="M589,1015.3l-0.9-0.9l2.7-1L589,1015.3z"/>
						</g>
					</g>
					<g transform="rotate(-72,0,0)">
						<g id="Arm_18_" transform="translate(0,-0.324925)">
							<path class="st11" d="M588,1015.5l0.6-1.2h-2.9L588,1015.5z"/>
							<path class="st11" d="M588.2,1013.9l0.2,1.3l-2.8-0.8L588.2,1013.9z"/>
						</g>
					</g>
					<g transform="rotate(-72,0,0) scale(-1,1)">
						<g id="Arm_19_" transform="translate(0,-0.324925)">
							<path class="st11" d="M588,1015.5l0.6-1.2l1.7,2.3L588,1015.5z"/>
							<path class="st11" d="M589.1,1014.4l-1.1,0.6l2.3,1.7L589.1,1014.4z"/>
						</g>
					</g>
				</g>
			</g>
		</g>
		<g id="Beta_Crucis">
			<g transform="translate(900,380) rotate(-82) scale(45.4)">
				<g id="Pentagram_4_">
					<g id="Arm_20_" transform="translate(0,-0.324925)">
						<path class="st10" d="M586.9,1041.3l2.3,0.3l-1.7-4.9L586.9,1041.3z"/>
						<path class="st10" d="M589.7,1040.8l-2.1,1.1l-0.1-5.2L589.7,1040.8z"/>
					</g>
					<g transform="scale(-1,1)">
						<g id="Arm_21_" transform="translate(0,-0.324925)">
							<path class="st10" d="M586.9,1041.3l2.3,0.3l-3,4.3L586.9,1041.3z"/>
							<path class="st10" d="M589.5,1042.5l-1.7-1.6l-1.6,5L589.5,1042.5z"/>
						</g>
					</g>
					<g transform="rotate(72,0,0)">
						<g id="Arm_22_" transform="translate(0,-0.324925)">
							<path class="st10" d="M588.1,1040l0.4,2.3l4.2-3.1L588.1,1040z"/>
							<path class="st10" d="M589.5,1042.5l-1.7-1.6l4.9-1.7L589.5,1042.5z"/>
						</g>
					</g>
					<g transform="rotate(-72,0,0)">
						<g id="Arm_23_" transform="translate(0,-0.324925)">
							<path class="st10" d="M587.7,1042.9l1-2.1l-5.2,0.1L587.7,1042.9z"/>
							<path class="st10" d="M588.1,1040l0.4,2.3l-5-1.5L588.1,1040z"/>
						</g>
					</g>
					<g transform="rotate(-72,0,0) scale(-1,1)">
						<g id="Arm_24_" transform="translate(0,-0.324925)">
							<path class="st10" d="M587.7,1042.9l1-2.1l3.2,4.1L587.7,1042.9z"/>
							<path class="st10" d="M589.7,1040.8l-2.1,1.1l4.3,3L589.7,1040.8z"/>
						</g>
					</g>
				</g>
			</g>
			<g transform="translate(900,380) rotate(-82) scale(30)">
				<g id="Pentagram_5_">
					<g id="Arm_25_" transform="translate(0,-0.324925)">
						<path class="st11" d="M587.4,1041.4l1.5,0.2l-1.1-3.3L587.4,1041.4z"/>
						<path class="st11" d="M589.3,1041l-1.4,0.7l-0.1-3.4L589.3,1041z"/>
					</g>
					<g transform="scale(-1,1)">
						<g id="Arm_26_" transform="translate(0,-0.324925)">
							<path class="st11" d="M587.4,1041.4l1.5,0.2l-2,2.8L587.4,1041.4z"/>
							<path class="st11" d="M589.1,1042.2l-1.1-1.1l-1,3.3L589.1,1042.2z"/>
						</g>
					</g>
					<g transform="rotate(72,0,0)">
						<g id="Arm_27_" transform="translate(0,-0.324925)">
							<path class="st11" d="M588.2,1040.5l0.3,1.5l2.8-2.1L588.2,1040.5z"/>
							<path class="st11" d="M589.1,1042.2l-1.1-1.1l3.3-1.1L589.1,1042.2z"/>
						</g>
					</g>
					<g transform="rotate(-72,0,0)">
						<g id="Arm_28_" transform="translate(0,-0.324925)">
							<path class="st11" d="M588,1042.4l0.7-1.4h-3.4L588,1042.4z"/>
							<path class="st11" d="M588.2,1040.5l0.3,1.5l-3.3-1L588.2,1040.5z"/>
						</g>
					</g>
					<g transform="rotate(-72,0,0) scale(-1,1)">
						<g id="Arm_29_" transform="translate(0,-0.324925)">
							<path class="st11" d="M588,1042.4l0.7-1.4l2.1,2.7L588,1042.4z"/>
							<path class="st11" d="M589.3,1041l-1.4,0.7l2.8,2L589.3,1041z"/>
						</g>
					</g>
				</g>
			</g>
		</g>
	</g>
	<g id="Alpha_Crucis">
		<g transform="translate(900,480) scale(50.4)">
			<g id="Pentagram_6_">
				<g id="Arm_30_" transform="translate(0,-0.324925)">
					<path class="st10" d="M77.5,64.2v2.6l5.2-2.6H77.5z"/>
					<path class="st10" d="M78.5,67.3L77,65.2l5.7-1L78.5,67.3z"/>
				</g>
				<g transform="scale(-1,1)">
					<g id="Arm_31_" transform="translate(0,-0.324925)">
						<path class="st10" d="M77.5,64.2v2.6l-5.2-2.6H77.5z"/>
						<path class="st10" d="M76.5,67.3l1.5-2.1l-5.7-1L76.5,67.3z"/>
					</g>
				</g>
				<g transform="rotate(72,0,0)">
					<g id="Arm_32_" transform="translate(0,-0.324925)">
						<path class="st10" d="M79.1,65.4l-2.5,0.8l4.1,4.1L79.1,65.4z"/>
						<path class="st10" d="M76.5,67.3l1.5-2.1l2.7,5.1L76.5,67.3z"/>
					</g>
				</g>
				<g transform="rotate(-72,0,0)">
					<g id="Arm_33_" transform="translate(0,-0.324925)">
						<path class="st10" d="M75.9,65.4l2.5,0.8l-0.9-5.7L75.9,65.4z"/>
						<path class="st10" d="M79.1,65.4l-2.5,0.8l0.9-5.7L79.1,65.4z"/>
					</g>
				</g>
				<g transform="rotate(-72,0,0) scale(-1,1)">
					<g id="Arm_34_" transform="translate(0,-0.324925)">
						<path class="st10" d="M75.9,65.4l2.5,0.8l-4.1,4.1L75.9,65.4z"/>
						<path class="st10" d="M78.5,67.3L77,65.2l-2.7,5.1L78.5,67.3z"/>
					</g>
				</g>
			</g>
		</g>
		<g transform="translate(900,480) scale(35)">
			<g id="Pentagram_7_">
				<g id="Arm_35_" transform="translate(0,-0.324925)">
					<path class="st11" d="M77.5,64.8v1.8l3.6-1.8H77.5z"/>
					<path class="st11" d="M78.2,66.9l-1.1-1.5l4-0.7L78.2,66.9z"/>
				</g>
				<g transform="scale(-1,1)">
					<g id="Arm_36_" transform="translate(0,-0.324925)">
						<path class="st11" d="M77.5,64.8v1.8l-3.6-1.8H77.5z"/>
						<path class="st11" d="M76.8,66.9l1.1-1.5l-4-0.7L76.8,66.9z"/>
					</g>
				</g>
				<g transform="rotate(72,0,0)">
					<g id="Arm_37_" transform="translate(0,-0.324925)">
						<path class="st11" d="M78.6,65.6l-1.7,0.6l2.8,2.9L78.6,65.6z"/>
						<path class="st11" d="M76.8,66.9l1.1-1.5l1.9,3.6L76.8,66.9z"/>
					</g>
				</g>
				<g transform="rotate(-72,0,0)">
					<g id="Arm_38_" transform="translate(0,-0.324925)">
						<path class="st11" d="M76.4,65.6l1.7,0.6l-0.6-4L76.4,65.6z"/>
						<path class="st11" d="M78.6,65.6l-1.7,0.6l0.6-4L78.6,65.6z"/>
					</g>
				</g>
				<g transform="rotate(-72,0,0) scale(-1,1)">
					<g id="Arm_39_" transform="translate(0,-0.324925)">
						<path class="st11" d="M76.4,65.6l1.7,0.6L75.3,69L76.4,65.6z"/>
						<path class="st11" d="M78.2,66.9l-1.1-1.5L75.3,69L78.2,66.9z"/>
					</g>
				</g>
			</g>
		</g>
	</g>
</g>
<polygon class="st10" points="77.4,31 80.4,28.8 76.7,28.8 75.6,25.2 74.4,28.8 70.7,28.8 73.7,31 72.5,34.5 75.6,32.3 78.6,34.5 
	"/>
<polygon class="st11" points="76.8,30.7 78.8,29.3 76.3,29.3 75.6,27 74.8,29.3 72.3,29.3 74.3,30.7 73.6,33.1 75.6,31.6 77.6,33.1 
	"/>
<polygon class="st10" points="90,42 92.7,40.1 89.4,40.1 88.4,36.9 87.3,40.1 84,40.1 86.7,42 85.7,45.2 88.4,43.2 91,45.2 "/>
<polygon class="st11" points="89.4,41.8 91,40.6 89,40.6 88.4,38.6 87.7,40.6 85.7,40.6 87.3,41.8 86.7,43.8 88.4,42.6 90,43.8 "/>
<polygon class="st10" points="62.5,46 65.5,43.8 61.8,43.8 60.6,40.2 59.5,43.8 55.7,43.8 58.8,46 57.6,49.5 60.6,47.3 63.6,49.5 
	"/>
<polygon class="st11" points="61.9,45.8 63.9,44.3 61.4,44.3 60.6,42 59.9,44.3 57.4,44.3 59.4,45.8 58.6,48.1 60.6,46.7 62.6,48.1 
	"/>
<polygon class="st10" points="77.6,69.8 81,67.4 76.8,67.4 75.6,63.4 74.3,67.4 70.1,67.4 73.5,69.8 72.2,73.7 75.6,71.3 78.9,73.7 
	"/>
<polygon class="st11" points="77,69.6 79.3,67.9 76.4,67.9 75.6,65.2 74.7,67.9 71.8,67.9 74.1,69.6 73.2,72.3 75.6,70.6 77.9,72.3 
	"/>
</svg>
