<?xml version="1.0" encoding="utf-8"?>
<!-- Generator: Adobe Illustrator 24.2.1, SVG Export Plug-In . SVG Version: 6.00 Build 0)  -->
<!DOCTYPE svg PUBLIC "-//W3C//DTD SVG 1.1//EN" "http://www.w3.org/Graphics/SVG/1.1/DTD/svg11.dtd" [
	<!ENTITY ns_extend "http://ns.adobe.com/Extensibility/1.0/">
	<!ENTITY ns_ai "http://ns.adobe.com/AdobeIllustrator/10.0/">
	<!ENTITY ns_graphs "http://ns.adobe.com/Graphs/1.0/">
	<!ENTITY ns_vars "http://ns.adobe.com/Variables/1.0/">
	<!ENTITY ns_imrep "http://ns.adobe.com/ImageReplacement/1.0/">
	<!ENTITY ns_sfw "http://ns.adobe.com/SaveForWeb/1.0/">
	<!ENTITY ns_custom "http://ns.adobe.com/GenericCustomNamespace/1.0/">
	<!ENTITY ns_adobe_xpath "http://ns.adobe.com/XPath/1.0/">
]>
<svg version="1.1"
	 id="svg2" xmlns:x="&ns_extend;" xmlns:i="&ns_ai;" xmlns:graph="&ns_graphs;" xmlns:cc="http://creativecommons.org/ns#" xmlns:dc="http://purl.org/dc/elements/1.1/" xmlns:rdf="http://www.w3.org/1999/02/22-rdf-syntax-ns#" xmlns:svg="http://www.w3.org/2000/svg"
	 xmlns="http://www.w3.org/2000/svg" xmlns:xlink="http://www.w3.org/1999/xlink" x="0px" y="0px" viewBox="0 0 100 100"
	 style="enable-background:new 0 0 100 100;" xml:space="preserve">
<style type="text/css">
	.st0{fill:#FFFFFF;}
	.st1{fill:#ED3726;}
</style>
<metadata  id="metadata8">
	<rdf:RDF>
		<cc:Work  rdf:about="">
			<dc:format>image/svg+xml</dc:format>
			<dc:type  rdf:resource="http://purl.org/dc/dcmitype/StillImage"></dc:type>
			<dc:title></dc:title>
		</cc:Work>
	</rdf:RDF>
	<sfw  xmlns="&ns_sfw;">
		<slices></slices>
		<sliceSourceBounds  bottomLeftOrigin="true" height="100" width="100" x="137.5" y="137.5"></sliceSourceBounds>
	</sfw>
</metadata>
<g>
	<circle class="st0" cx="50" cy="50" r="50"/>
	<g>
		<path class="st1" d="M33.2,2.9C18,8.4,5.7,21.1,1.5,38c-6.2,25.2,7.8,50.6,31.7,59.1V2.9z"/>
		<path class="st1" d="M67.3,3.1v93.8c15-5.6,27.1-18.2,31.2-34.9C104.7,37,90.9,11.8,67.3,3.1z"/>
	</g>
	<path class="st1" d="M50.5,68.8h0.6l-0.2-8.6l0.6-0.5c2.7,0.3,5.1,0.6,7.8,0.9l-0.7-2.3c-0.1-0.4,0-0.9,0.4-1.1l7.8-6.6l-1.6-0.8
		C64.5,49.5,64.7,49,65,48l1.2-4.5l-4.5,1c-0.4,0.1-0.7-0.2-0.8-0.5l-0.6-2.1l-3.6,4.2c-0.5,0.7-1.5,0.7-1.2-0.9l1.5-8.5l-2.1,1.1
		c-0.6,0.3-1.2,0.4-1.5-0.2L50.5,32l-2.9,5.5c-0.3,0.6-0.9,0.5-1.5,0.2l-2.1-1.1l1.5,8.5c0.3,1.6-0.7,1.6-1.2,0.9l-3.6-4.2L40.2,44
		c-0.1,0.3-0.4,0.6-0.8,0.5l-4.5-1L36,48c0.3,1,0.5,1.4-0.3,1.7l-1.6,0.8l7.8,6.6c0.3,0.3,0.5,0.7,0.4,1.1l-0.7,2.3
		c2.7-0.3,5.1-0.6,7.8-0.9l0.6,0.5l-0.2,8.6H50.5z"/>
</g>
</svg>
