<svg xmlns="http://www.w3.org/2000/svg" viewBox="0 0 100 100"><circle cx="50" cy="50" r="50" style="fill:#50af95"/><path d="M56.32994,52.15221h0c-.35355.02651-2.1802.13552-6.25481.13552-3.24083,0-5.54182-.09722-6.34908-.13552h0c-12.52434-.55094-21.87267-2.73114-21.87267-5.34148s9.34833-4.78759,21.87267-5.34737v8.51749c.819.05892,3.16423.1974,6.40506.1974,3.889,0,5.83644-.16205,6.187-.19445V41.46925c12.49783.55683,21.82552,2.737,21.82552,5.34148s-9.32475,4.78464-21.82553,5.33853h0Zm0-11.56388V32.96648H73.7715V21.34368H26.2845v11.6228H43.72309v7.6189c-14.17422.65112-24.83361,3.45885-24.83361,6.82343s10.65939,6.16936,24.83361,6.82342V78.65632H56.327V54.22339c14.14181-.65111,24.78352-3.4559,24.78352-6.81753S70.47763,41.23944,56.327,40.58538h0Z" transform="translate(0 0)" style="fill:#fff;fill-rule:evenodd"/></svg>