<?xml version="1.0" encoding="utf-8"?>
<!-- Generator: Adobe Illustrator 24.2.1, SVG Export Plug-In . SVG Version: 6.00 Build 0)  -->
<!DOCTYPE svg PUBLIC "-//W3C//DTD SVG 1.1//EN" "http://www.w3.org/Graphics/SVG/1.1/DTD/svg11.dtd" [
	<!ENTITY ns_extend "http://ns.adobe.com/Extensibility/1.0/">
	<!ENTITY ns_ai "http://ns.adobe.com/AdobeIllustrator/10.0/">
	<!ENTITY ns_graphs "http://ns.adobe.com/Graphs/1.0/">
	<!ENTITY ns_vars "http://ns.adobe.com/Variables/1.0/">
	<!ENTITY ns_imrep "http://ns.adobe.com/ImageReplacement/1.0/">
	<!ENTITY ns_sfw "http://ns.adobe.com/SaveForWeb/1.0/">
	<!ENTITY ns_custom "http://ns.adobe.com/GenericCustomNamespace/1.0/">
	<!ENTITY ns_adobe_xpath "http://ns.adobe.com/XPath/1.0/">
]>
<svg version="1.1"
	 id="svg2" xmlns:x="&ns_extend;" xmlns:i="&ns_ai;" xmlns:graph="&ns_graphs;" xmlns:cc="http://creativecommons.org/ns#" xmlns:dc="http://purl.org/dc/elements/1.1/" xmlns:rdf="http://www.w3.org/1999/02/22-rdf-syntax-ns#" xmlns:svg="http://www.w3.org/2000/svg"
	 xmlns="http://www.w3.org/2000/svg" xmlns:xlink="http://www.w3.org/1999/xlink" x="0px" y="0px" viewBox="0 0 100 100"
	 style="enable-background:new 0 0 100 100;" xml:space="preserve">
<style type="text/css">
	.st0{clip-path:url(#SVGID_1_);fill:#2C2A7C;}
	.st1{clip-path:url(#SVGID_1_);}
	.st2{clip-path:url(#SVGID_2_);fill:#2C2A7C;}
	.st3{clip-path:url(#SVGID_2_);fill:#FFFFFF;}
	.st4{clip-path:url(#SVGID_2_);fill:#E81E25;}
</style>
<metadata  id="metadata8">
	<rdf:RDF>
		<cc:Work  rdf:about="">
			<dc:format>image/svg+xml</dc:format>
			<dc:type  rdf:resource="http://purl.org/dc/dcmitype/StillImage"></dc:type>
			<dc:title></dc:title>
		</cc:Work>
	</rdf:RDF>
	<sfw  xmlns="&ns_sfw;">
		<slices></slices>
		<sliceSourceBounds  bottomLeftOrigin="true" height="159.1" width="121.8" x="124.9" y="104.4"></sliceSourceBounds>
	</sfw>
</metadata>
<g>
	<defs>
		<path id="SVGID_36_" d="M100,50c0,27.6-22.4,50-50,50C22.4,100,0,77.6,0,50C0,22.4,22.4,0,50,0C77.6,0,100,22.4,100,50z"/>
	</defs>
	<clipPath id="SVGID_1_">
		<use xlink:href="#SVGID_36_"  style="overflow:visible;"/>
	</clipPath>
	<rect x="-8.3" y="64.6" class="st0" width="117.5" height="68.5"/>
	<rect x="-12.6" y="-26" class="st0" width="117.5" height="91.2"/>
	<g class="st1">
		<g>
			<defs>
				<rect id="SVGID_38_" x="-3.8" y="13.5" width="105.3" height="61.4"/>
			</defs>
			<clipPath id="SVGID_2_">
				<use xlink:href="#SVGID_38_"  style="overflow:visible;"/>
			</clipPath>
			<rect x="-3.8" y="13.5" class="st2" width="105.3" height="61.4"/>
			<polygon class="st3" points="23.9,51.2 25.5,56.1 30.4,54.3 27.5,58.6 32,61.3 26.8,61.8 27.5,66.9 23.9,63.2 20.3,66.9 
				21.1,61.8 15.8,61.3 20.3,58.6 17.4,54.3 22.3,56.1 			"/>
			<polygon class="st3" points="79.3,60.1 80.1,62.5 82.4,61.6 81,63.7 83.2,65 80.7,65.2 81,67.6 79.3,65.8 77.6,67.6 77.9,65.2 
				75.5,65 77.6,63.7 76.2,61.6 78.6,62.5 			"/>
			<polygon class="st3" points="65.5,38.2 66.2,40.6 68.6,39.7 67.2,41.8 69.3,43 66.8,43.2 67.2,45.7 65.5,43.9 63.8,45.7 
				64.1,43.2 61.6,43 63.8,41.8 62.4,39.7 64.7,40.6 			"/>
			<polygon class="st3" points="79.3,23.2 80.1,25.6 82.4,24.7 81,26.8 83.2,28 80.7,28.3 81,30.7 79.3,28.9 77.6,30.7 77.9,28.3 
				75.5,28 77.6,26.8 76.2,24.7 78.6,25.6 			"/>
			<polygon class="st3" points="91.6,34.5 92.4,36.9 94.7,36 93.3,38.1 95.5,39.3 93,39.6 93.3,42 91.6,40.2 89.9,42 90.3,39.6 
				87.8,39.3 89.9,38.1 88.5,36 90.9,36.9 			"/>
			<polygon class="st3" points="84.9,45.6 85.5,47.1 87,47.2 85.8,48.2 86.2,49.8 84.9,49 83.5,49.8 83.9,48.2 82.7,47.2 84.3,47.1 
							"/>
			<polygon class="st3" points="19.3,13.5 19.3,22.8 -3.8,22.8 -3.8,32 19.3,32 19.3,41.2 28.6,41.2 28.6,32 51.6,32 51.6,22.8 
				28.6,22.8 28.6,13.5 			"/>
			<polygon class="st3" points="-3.8,13.5 -3.8,16.6 45.4,41.2 51.6,41.2 51.6,38.1 2.4,13.5 			"/>
			<polygon class="st3" points="45.4,13.5 -3.8,38.1 -3.8,41.2 2.4,41.2 51.6,16.6 51.6,13.5 			"/>
			<polygon class="st4" points="21.2,13.5 21.2,24.6 -3.8,24.6 -3.8,30.1 21.2,30.1 21.2,41.2 26.7,41.2 26.7,30.1 51.6,30.1 
				51.6,24.6 26.7,24.6 26.7,13.5 			"/>
			<path class="st4" d="M-3.8,13.5v2.1l14.3,7.2h4.1L-3.8,13.5z M47.5,13.5L29,22.8h4.1l18.5-9.2H47.5z"/>
			<path class="st4" d="M14.7,32l-18.5,9.2h4.1L18.8,32H14.7z M33.2,32l18.5,9.2v-2.1L37.3,32H33.2z"/>
		</g>
	</g>
</g>
</svg>
