<svg xmlns="http://www.w3.org/2000/svg" viewBox="0 0 136.63901 24"><path d="M4.00392,3.6761,10.3727,0l6.3688,3.6761L14.4,5.03415,10.3727,2.7161,6.34539,5.03415ZM16.7415,8.31219,14.4,6.95415l-4.0273,2.318-4.02731-2.318-2.34147,1.358V11.0283l4.02731,2.318v4.6361l2.34147,1.3581,2.3415-1.3581V13.3463l4.0273-2.318Zm0,7.35221V12.9483L14.4,14.3063v2.7161Zm1.6624.96-4.0273,2.318v2.7161l6.3688-3.6761V10.6302l-2.3415,1.3581ZM16.0625,5.99415l2.3414,1.358V10.0683l2.3415-1.35806V5.99415L18.4039,4.6361ZM8.03123,19.9259V22.642L10.3727,24l2.3415-1.358V19.9259l-2.3415,1.358ZM4.00392,15.6644l2.34147,1.358V14.3063l-2.34147-1.358ZM8.03123,5.99415l2.34147,1.358,2.3415-1.358L10.3727,4.6361Zm-5.68977,1.358,2.34147-1.358L2.34146,4.6361,0,5.99415V8.71024L2.34146,10.0683Zm0,4.63611L0,10.6302v7.3522l6.36877,3.6761V18.9424l-4.02731-2.318Z" style="fill:#f0b90b"/><path d="M39.2049,15.0615v-.0381c0-1.7936-.954-2.6904-2.4996-3.2819a3.10663,3.10663,0,0,0,1.7555-2.88127V8.82207c0-2.09891-1.6791-3.45366-4.4077-3.45366H27.8517V18.7251h6.354C37.2205,18.7251,39.2049,17.5039,39.2049,15.0615ZM35.5414,9.35633c0,.99217-.8205,1.412-2.118,1.412H30.7139v-2.824h2.9003c1.2403,0,1.9272.49611,1.9272,1.37383Zm.7441,5.34267c0,.9922-.7823,1.4502-2.0798,1.4502H30.7139V13.2107h3.3964c1.5074,0,2.1752.5533,2.1752,1.4501Z" style="fill:#f0b90b"/><path d="M53.6813,18.7251V5.36841H50.781V13.5923L44.5224,5.36841H41.8129V18.7251h2.9003v-8.491l6.4685,8.491Z" style="fill:#f0b90b"/><path d="M68.4316,15.0615v-.0381c0-1.7936-.954-2.6904-2.4996-3.2819a3.10663,3.10663,0,0,0,1.7555-2.88127V8.82207c0-2.09891-1.6791-3.45366-4.4077-3.45366H57.0785V18.7251h6.3539C66.4472,18.7251,68.4316,17.5039,68.4316,15.0615ZM64.7681,9.35633c0,.99217-.8205,1.412-2.118,1.412H59.9406v-2.824h2.9003c1.2403,0,1.9272.49611,1.9272,1.37383Zm.7442,5.34267c0,.9922-.7824,1.4502-2.0799,1.4502H59.9406V13.2107H63.337c1.5074,0,2.1753.5533,2.1753,1.4501Z" style="fill:#f0b90b"/><path d="M86.1414,16.3656,84.634,14.8391a5.23631,5.23631,0,0,1-3.8353,1.7364,4.52249,4.52249,0,0,1-4.4077-4.7703,4.489,4.489,0,0,1,4.4077-4.73206,5.31227,5.31227,0,0,1,3.7399,1.66005L86.046,6.99682A6.96232,6.96232,0,0,0,80.8178,4.917a6.76337,6.76337,0,0,0-6.8882,6.92641,6.7221,6.7221,0,0,0,6.7928,6.8882A6.892,6.892,0,0,0,86.1414,16.3656Z" style="fill:#f0b90b"/><path d="M97.519,12.8738v5.6289h2.347V5.146H97.519V10.6985H91.146V5.146H88.799V18.5027h2.347V12.8738Z" style="fill:#f0b90b"/><path d="M110.394,5.05056h-2.175L102.342,18.5027h2.404l1.374-3.2247h6.316l1.355,3.2247h2.48Zm1.183,8.14754h-4.598l2.289-5.34264Z" style="fill:#f0b90b"/><path d="M118.886,5.146V18.5027h2.347V5.146Z" style="fill:#f0b90b"/><path d="M134.33,14.3812,127.174,5.146h-2.175V18.5027h2.309V9.00032l7.365,9.50238h1.966V5.146H134.33Z" style="fill:#f0b90b"/></svg>