<?xml version="1.0" encoding="utf-8"?>
<!-- Generator: Adobe Illustrator 24.2.1, SVG Export Plug-In . SVG Version: 6.00 Build 0)  -->
<!DOCTYPE svg PUBLIC "-//W3C//DTD SVG 1.1//EN" "http://www.w3.org/Graphics/SVG/1.1/DTD/svg11.dtd" [
	<!ENTITY ns_extend "http://ns.adobe.com/Extensibility/1.0/">
	<!ENTITY ns_ai "http://ns.adobe.com/AdobeIllustrator/10.0/">
	<!ENTITY ns_graphs "http://ns.adobe.com/Graphs/1.0/">
	<!ENTITY ns_vars "http://ns.adobe.com/Variables/1.0/">
	<!ENTITY ns_imrep "http://ns.adobe.com/ImageReplacement/1.0/">
	<!ENTITY ns_sfw "http://ns.adobe.com/SaveForWeb/1.0/">
	<!ENTITY ns_custom "http://ns.adobe.com/GenericCustomNamespace/1.0/">
	<!ENTITY ns_adobe_xpath "http://ns.adobe.com/XPath/1.0/">
]>
<svg version="1.1" id="Layer_3" xmlns:x="&ns_extend;" xmlns:i="&ns_ai;" xmlns:graph="&ns_graphs;"
	 xmlns="http://www.w3.org/2000/svg" xmlns:xlink="http://www.w3.org/1999/xlink" x="0px" y="0px" viewBox="0 0 1591.4 870.3"
	 style="enable-background:new 0 0 1591.4 870.3;" xml:space="preserve">
<style type="text/css">
	.st0{fill:#E7F7FD;}
</style>
<metadata>
	<sfw  xmlns="&ns_sfw;">
		<slices></slices>
		<sliceSourceBounds  bottomLeftOrigin="true" height="352" width="1591.4" x="0" y="99.3"></sliceSourceBounds>
	</sfw>
</metadata>
<path class="st0" d="M1374.7,428.9c-1.7-0.3-3.5-0.7-5.2-1c0,0,0,0,0,0l0,0c-76.4-14.5-81.5,39.4-110.1,64.9
	c-51.4,45.9-158.5-36.2-207.4,12.3c-43.9,43.5-97.2,59.7-152.6,40.6c-55.4-19.1-65.6-61.1-121.6-44.3
	c-54.4,16.3-99.4,72.3-155.6,70.1c-66.2-2.5-114.9-85.1-181.1-86.6c-54.5-1.2-96.7,52.1-131.6,100.5
	c-34.9,48.4-78.8,100.7-133.1,96.4c-36.3-2.9-67.1-31.2-92.7-61.1c-25.6-29.9-49.5-63.4-82-82.2c-0.6-0.3-1.1-0.6-1.7-0.9v130.1
	c19.8,31.5,21.8,51.4,60.2,74.1c51.8,30.7,135.5,41.1,195,12.1c54.3-26.4,99.1-79.5,159.5-81.4c74.4-2.3,138.7,76.1,211.3,59.5
	c53.6-12.2,88.7-73.3,143.5-77.2c58.7-4.1,106,60.3,164.7,55.6c53.9-4.3,88.6-64.6,141.6-75c53.5-10.5,103.3,32.7,157.7,35.6
	c52.6,2.8,99.6-32.4,135.5-71c69.6-74.6,146.7,21.6,222.4-41.7v-50.7V419C1486.1,496.2,1396.8,432.5,1374.7,428.9z"/>
</svg>
