<svg xmlns="http://www.w3.org/2000/svg" viewBox="0 0 2234.17093 475.68392"><path d="M798.534,373.234c30.723,0,60.887-10.334,79.042-24.299V259.839H794.344v38.543h38.544v23.461a69.02305,69.02305,0,0,1-34.354,8.658c-33.795,0-53.626-26.254-53.626-58.373,0-36.868,23.462-58.374,51.671-58.374,21.227,0,36.867,9.217,47.481,19.551l32.957-27.93c-20.389-23.461-51.67-35.471-80.438-35.471-63.401,0-100.548,44.688-100.548,102.224C696.031,336.646,741.277,373.234,798.534,373.234ZM906.429,371H950V302.292c0-21.227,10.054-31.561,25.137-31.561,14.244,0,21.785,6.424,21.785,29.047V371h43.568V289.165c0-43.291-20.67-57.256-48.875-57.256-15.92,0-30.443,6.144-41.057,18.433H950v-15.92H906.429Zm229.871,2.514c43.01,0,73.74-28.768,73.74-70.663,0-42.174-30.73-70.942-73.74-70.942-44.13,0-74.01,29.326-74.01,70.942C1062.29,344.187,1092.17,373.514,1136.30005,373.514Zm0-38.544c-17.32007,0-29.88-13.965-29.88-32.119,0-18.713,12.28992-32.12,29.88-32.12,17.03992,0,29.61,13.127,29.61,32.12C1165.91,321.564,1152.78,334.97,1136.30005,334.97Zm142.13,38.544c37.41993,0,55.58-18.434,55.58-43.85,0-26.813-16.48-34.634-46.64-44.968-13.68995-4.748-18.72-7.82-18.72-12.01,0-5.306,5.87-7.541,10.9-7.541,9.21,0,20.93994,4.748,30.43994,14.245l20.67-30.444c-15.92-11.731-31.01-17.037-51.67-17.037-28.49,0-51.12,15.92-51.12,43.57,0,26.255,20.11,37.427,43.02,44.409,17.03,5.307,21.22,8.1,21.22,12.569,0,5.027-4.47,8.099-13.12,8.099-12.57,0-24.30005-5.027-35.75-15.361l-20.39,28.209C1237.93005,366.811,1256.92,373.514,1278.43005,373.514Zm101.22-156.129c15.09,0,26.26-10.893,26.26-25.137,0-13.686-11.17-24.578-26.26-24.578-15.08007,0-25.97,11.172-25.97,24.578C1353.68005,206.492,1364.57,217.385,1379.65,217.385ZM1357.87,371h43.56994V234.422H1357.87Zm120.21,2.514c37.43,0,55.58007-18.434,55.58007-43.85,0-26.813-16.47009-34.634-46.64-44.968-13.68-4.748-18.71-7.82-18.71-12.01,0-5.306,5.86-7.541,10.88989-7.541,9.22009,0,20.95007,4.748,30.44006,14.245l20.67-30.444c-15.92-11.731-31-17.037-51.67-17.037-28.49,0-51.11,15.92-51.11,43.57,0,26.255,20.11,37.427,43.01,44.409,17.03992,5.307,21.23,8.1,21.23,12.569,0,5.027-4.47,8.099-13.13,8.099-12.57006,0-24.3-5.027-35.75-15.361l-20.39,28.209C1437.59,366.811,1456.58,373.514,1478.08,373.514Zm243.7301,0a102.09292,102.09292,0,0,0,79.87988-37.706l-34.08-29.326c-11.45,13.685-27.37,22.344-45.79993,22.344-32.4,0-53.3501-24.858-53.3501-56.698,0-36.309,24.30005-57.536,53.07007-57.536,19.27,0,35.18994,10.334,45.79993,22.903L1801.41,208.168a103.13536,103.13536,0,0,0-79.88-38.264c-65.36,0-102.23,45.526-102.23,102.224C1619.30005,338.043,1664.83,373.514,1721.81006,373.514ZM1823.15,371h43.58V302.013c0-21.227,10.05-31.282,25.41-31.282s22.9,6.704,22.9,28.768V371h43.58V288.606c0-43.012-20.95-56.697-49.16-56.697-16.76,0-31.55994,6.144-42.17993,18.154l-.55-.279V165.435h-43.58ZM2044.34,373.514c16.47009,0,28.76013-5.586,37.70007-17.038l.56006.28V371H2124.22V234.422h-43.84985v14.245l-.56006.279A48.88284,48.88284,0,0,0,2042.1,231.909c-35.18995,0-62.28,29.047-62.28,70.942C1979.82,345.025,2006.91,373.514,2044.34,373.514Zm9.21008-38.544c-17.31006,0-29.32007-12.848-29.32007-32.119,0-19.551,12.57007-32.399,29.32007-32.399,16.2,0,28.77,13.686,28.77,32.399C2082.32007,322.402,2069.18994,334.97,2053.55005,334.97Zm123.08984-117.585c15.08008,0,26.26-10.893,26.26-25.137,0-13.686-11.17993-24.578-26.26-24.578-15.07983,0-25.97,11.172-25.97,24.578C2150.66992,206.492,2161.56006,217.385,2176.63989,217.385ZM2154.86011,371h43.56982V234.422h-43.56982Zm75.24,0h43.56982V302.292c0-21.227,10.06006-31.561,25.14014-31.561,14.25,0,21.79,6.424,21.79,29.047V371h43.56982V289.165c0-43.291-20.66992-57.256-48.87988-57.256-15.91992,0-30.43994,6.144-41.06006,18.433h-.56006v-15.92H2230.1001Z" transform="translate(-129.99899 -42.0001)" style="fill:#04795b"/><path d="M270.044,312.701a61.46271,61.46271,0,0,0,37.879-12.925l-86.685-86.654a60.6437,60.6437,0,0,0-12.93,37.866A61.54472,61.54472,0,0,0,270.044,312.701Z" transform="translate(-129.99899 -42.0001)" style="fill:#04795b"/><path d="M527.913,250.805a61.41038,61.41038,0,0,0-12.93-37.865l-86.685,86.653a60.6946,60.6946,0,0,0,37.879,12.925A61.54408,61.54408,0,0,0,527.913,250.805Z" transform="translate(-129.99899 -42.0001)" style="fill:#04795b"/><path d="M571.62,156.689l-38.426,38.412A87.375,87.375,0,0,1,410.087,318.163l-42.068,42.052-42.068-42.052A87.37094,87.37094,0,0,1,202.844,195.101L183.176,175.44l-18.758-18.751a236.63734,236.63734,0,0,0-34.419,123.245c0,131.436,106.535,237.75,237.838,237.75,131.302,0,237.837-106.496,237.837-237.75A232.08141,232.08141,0,0,0,571.62,156.689Z" transform="translate(-129.99899 -42.0001)" style="fill:#04795b"/><path d="M540.114,115.728a237.71643,237.71643,0,0,0-344.191,0c-5.827,6.19-11.472,12.744-16.754,19.479L367.837,323.805l188.667-188.78A161.45867,161.45867,0,0,0,540.114,115.728ZM368.019,72.9477c55.726,0,107.446,21.4813,146.235,60.6213L368.019,279.751,221.783,133.569C260.755,94.429,312.293,72.9477,368.019,72.9477Z" transform="translate(-129.99899 -42.0001)" style="fill:#04795b"/></svg>