<?xml version="1.0" encoding="UTF-8"?><svg id="a" xmlns="http://www.w3.org/2000/svg" viewBox="0 0 399.99999 344.05591"><path d="M372.93382,113.43872C319.2791,32.26465,203.69707-16.28137,114.77427,5.00812,75.856,14.32575,48.49492,35.47638,34.52696,63.12226L14.33677,96.62403c-.22424,.36932-.44983,.73798-.66895,1.10999l-.2489,.41302,.00226,.01813C-7.6053,134.28565-4.56087,182.77686,27.06077,230.61719c53.65472,81.17407,169.23676,129.72009,258.15955,108.4306,35.01849-8.38397,60.67212-26.35236,75.6391-50.00848l.01758-.0127,.242-.40698c.77997-1.2467,1.53082-2.50873,2.25146-3.78625l21.04926-35.39856-.00067-.00031c23.36017-36.45441,21.18127-86.57477-11.48523-135.99579Z" style="fill:#2f846a;"/><ellipse cx="207.32099" cy="159.65347" rx="138.14913" ry="198.40776" transform="translate(-27.82241 274.45245) rotate(-63.62112)" style="fill:#c0edde;"/><ellipse cx="210.6454" cy="154.22582" rx="136.6562" ry="196.31155" transform="translate(-20.88241 274.85733) rotate(-63.73063)" style="fill:#50af95;"/><path d="M244.61497,161.64589h0c-1.09634,.26852-6.81539,1.57594-20.03394,3.79031-10.56339,1.76958-18.25856,2.74481-20.97122,3.07534h0c-42.39514,5.30335-77.73089,4.04731-82.48863-3.76067-4.77608-7.83807,22.93062-19.50152,63.81478-27.91109l14.90381,25.2776c2.79337-.27314,10.72229-1.1426,21.30862-2.90176,12.64522-2.1013,18.67872-3.62446,19.75788-3.90774l-14.52418-25.10462c41.39423-4.85729,74.72716-3.26713,78.97994,4.32875,4.23707,7.56781-21.68404,18.80266-60.79025,27.11166h0l.04319,.00222Zm-19.70714-34.06381l-13.17051-22.76523,56.79826-8.80941-19.65793-34.8811-159.72789,23.56614,21.65653,35.77878,59.06637-9.1612,13.50665,22.90783c-46.32973,9.56308-77.43214,23.86561-71.24089,33.98085,6.16058,10.06514,47.081,12.38955,95.06204,6.42081l41.48087,70.35327,39.8815-7.34533-40.46214-69.93855c44.06014-9.49916,72.99929-23.22094,67.57047-32.96064-5.45476-9.78624-43.87873-12.55587-90.77802-7.15345h0l.01468,.00722Z" style="fill:#fff; fill-rule:evenodd;"/></svg>