<svg xmlns="http://www.w3.org/2000/svg" viewBox="0 0 212.58618 129.39375"><ellipse cx="106.29309" cy="119.03375" rx="106.29309" ry="10.36" style="fill:#b8e7f9"/><path d="M157.96793,92.57257a19.02888,19.02888,0,0,0-3.23029-6.20428,14.65244,14.65244,0,0,0-4.94507-4.00507,13.89,13.89,0,0,0-6.2074-1.41827l-.0047-.00269h-8.04534L134.914,83.908a15.29548,15.29548,0,0,0-2.49432,2.46027,19.02888,19.02888,0,0,0-3.23029,6.20428,26.51434,26.51434,0,0,0-1.15649,8.08875,25.41943,25.41943,0,0,0,1.15649,7.87017,18.79379,18.79379,0,0,0,3.23029,6.12555,14.67314,14.67314,0,0,0,3.99933,3.44013l-.39155.04663-.447,1.85614L143.53513,120a13.16548,13.16548,0,0,0,5.90216-1.39478,15.259,15.259,0,0,0,4.96685-3.94818,20.00576,20.00576,0,0,0,3.42963-6.12555,22.96624,22.96624,0,0,0,1.29425-7.87017A26.51389,26.51389,0,0,0,157.96793,92.57257Zm-9.82129,12.38672a8.25076,8.25076,0,0,1-1.04773,2.73706,3.87139,3.87139,0,0,1-1.58069,1.4516,4.56545,4.56545,0,0,1-1.98309.42853,4.42586,4.42586,0,0,1-1.96137-.42853,3.6177,3.6177,0,0,1-1.51178-1.4516,8.64433,8.64433,0,0,1-.98248-2.73706,21.86333,21.86333,0,0,1-.35529-4.298,23.86425,23.86425,0,0,1,.35529-4.49036,9.46086,9.46086,0,0,1,.98248-2.87262,3.581,3.581,0,0,1,1.51178-1.504,4.48594,4.48594,0,0,1,1.96137-.42853,4.6282,4.6282,0,0,1,1.98309.42853,3.81875,3.81875,0,0,1,1.58069,1.504,9.01121,9.01121,0,0,1,1.04773,2.87262,22.51515,22.51515,0,0,1,.37707,4.49036A20.63026,20.63026,0,0,1,148.14664,104.95929Z" style="fill:#0d7aa6"/><path d="M120.63705,51.6347a19.09673,19.09673,0,0,0-3.23028-6.20867,14.62038,14.62038,0,0,0-4.945-4.00061A13.90356,13.90356,0,0,0,106.20425,40c-.02594,0-.05035.004-.07629.00409L106.12112,40l-8.19555.00244L97.304,43.17792A15.41238,15.41238,0,0,0,95.08878,45.426a19.09665,19.09665,0,0,0-3.23023,6.20867,26.48272,26.48272,0,0,0-1.16016,8.08442A25.14885,25.14885,0,0,0,91.85855,67.563a18.8358,18.8358,0,0,0,3.23023,6.09936,14.69041,14.69041,0,0,0,4.035,3.46149l-.65228.0777-.22553,1.80377h8.04718L106.297,79a13.17756,13.17756,0,0,0,5.80945-1.38947,15.26025,15.26025,0,0,0,4.96679-3.94818A20.14438,20.14438,0,0,0,120.5029,67.563a22.72566,22.72566,0,0,0,1.29065-7.84387A26.48535,26.48535,0,0,0,120.63705,51.6347Zm-9.82489,12.38239a8.2395,8.2395,0,0,1-1.04412,2.74139,3.94045,3.94045,0,0,1-1.58429,1.4516,4.62376,4.62376,0,0,1-1.9795.42853,4.48548,4.48548,0,0,1-1.9613-.42853,3.70085,3.70085,0,0,1-1.51544-1.4516,8.6303,8.6303,0,0,1-.97888-2.74139,21.56,21.56,0,0,1-.35529-4.298,23.82665,23.82665,0,0,1,.35529-4.53846,9.35819,9.35819,0,0,1,.97888-2.877,3.63315,3.63315,0,0,1,1.51544-1.504,4.48548,4.48548,0,0,1,1.9613-.42853,4.62376,4.62376,0,0,1,1.9795.42853,3.85432,3.85432,0,0,1,1.58429,1.504,8.91671,8.91671,0,0,1,1.04412,2.877,22.463,22.463,0,0,1,.38068,4.53846A20.331,20.331,0,0,1,110.81216,64.01709Z" style="fill:#0d7aa6"/><path d="M74.3837,14.56689A31.88808,31.88808,0,0,0,62.908,3.58276,29.81025,29.81025,0,0,0,48.52133,0c-.03967,0-.07825.0033-.11786.00342V0H40.32083V1.10876a28.92609,28.92609,0,0,0-6.11017,2.474A31.78156,31.78156,0,0,0,22.83273,14.56689a59.8757,59.8757,0,0,0-7.511,18.67365,115.25062,115.25062,0,0,0-2.69922,26.63824,115.21146,115.21146,0,0,0,2.69922,26.63831,59.80953,59.80953,0,0,0,7.511,18.67364,32.20823,32.20823,0,0,0,11.37793,11.03,28.92009,28.92009,0,0,0,6.11017,2.49854v1.12353h8.08264v-.00348c.03961.00013.07819.00348.11786.00348A29.6254,29.6254,0,0,0,62.908,116.2207a32.31378,32.31378,0,0,0,11.47571-11.03,59.8121,59.8121,0,0,0,7.57623-18.67364,113.87061,113.87061,0,0,0,2.73724-26.63831,113.90936,113.90936,0,0,0-2.73724-26.63824A59.87858,59.87858,0,0,0,74.3837,14.56689ZM62.07162,79.83624A47.50579,47.50579,0,0,1,58.699,92.0321q-2.10177,4.47025-4.76843,6.11756a10.1961,10.1961,0,0,1-5.40924,1.65057,10.01714,10.01714,0,0,1-5.37128-1.65057q-2.63132-1.6506-4.67065-6.11756a48.64276,48.64276,0,0,1-3.26947-12.19586,130.62463,130.62463,0,0,1-1.23279-19.95746,130.77207,130.77207,0,0,1,1.23279-19.91809A48.01065,48.01065,0,0,1,38.4794,27.76483q2.03669-4.42118,4.67065-6.07825A10.07368,10.07368,0,0,1,48.52133,20.036a10.25407,10.25407,0,0,1,5.40924,1.65057q2.66391,1.65053,4.76843,6.07825a46.88889,46.88889,0,0,1,3.37262,12.19586,128.13774,128.13774,0,0,1,1.26545,19.91809A127.99018,127.99018,0,0,1,62.07162,79.83624Z" style="fill:#0d7aa6"/><path d="M146.566,40.75208a4.25488,4.25488,0,0,0-2.71912.78259,8.68936,8.68936,0,0,0-1.64953,1.69208l-48.91407,75.807h10.33606a4.25219,4.25219,0,0,0,2.429-.67334,5.83553,5.83553,0,0,0,1.66772-1.69208l48.91767-75.91625Z" style="fill:#0d7aa6"/><path d="M76.69716,59.87883a113.8715,113.8715,0,0,1-2.73722,26.63828,59.81229,59.81229,0,0,1-7.57624,18.67365,32.31385,32.31385,0,0,1-11.47568,11.03,29.62556,29.62556,0,0,1-14.3867,3.62208,29.19925,29.19925,0,0,1-14.31067-3.62208,32.20835,32.20835,0,0,1-11.37792-11.03A59.8114,59.8114,0,0,1,7.32166,86.51711a115.21238,115.21238,0,0,1-2.6992-26.63828,115.25186,115.25186,0,0,1,2.6992-26.63828A59.8769,59.8769,0,0,1,14.83273,14.5669,31.78126,31.78126,0,0,1,26.21065,3.58278,29.381,29.381,0,0,1,40.52132,0,29.8103,29.8103,0,0,1,54.908,3.58278,31.88773,31.88773,0,0,1,66.3837,14.5669a59.8781,59.8781,0,0,1,7.57624,18.67365A113.91058,113.91058,0,0,1,76.69716,59.87883Zm-21.36009,0A128.13881,128.13881,0,0,0,54.07165,39.9607,46.88984,46.88984,0,0,0,50.699,27.76486q-2.1018-4.42114-4.76841-6.07827A10.25411,10.25411,0,0,0,40.52132,20.036a10.07351,10.07351,0,0,0-5.37125,1.65056q-2.63132,1.65057-4.67066,6.07827A48.00853,48.00853,0,0,0,27.21,39.9607a130.77046,130.77046,0,0,0-1.23284,19.91813A130.62222,130.62222,0,0,0,27.21,79.83625a48.6396,48.6396,0,0,0,3.26945,12.19584q2.03663,4.47029,4.67066,6.11757a10.01671,10.01671,0,0,0,5.37125,1.65056,10.19588,10.19588,0,0,0,5.40927-1.65056q2.66389-1.65057,4.76841-6.11757a47.50582,47.50582,0,0,0,3.37265-12.19584A127.99049,127.99049,0,0,0,55.33707,59.87883Z" style="fill:#5bc6f1"/><path d="M113.79355,59.71911A22.72585,22.72585,0,0,1,112.5029,67.563a20.14509,20.14509,0,0,1-3.42964,6.09936,15.2603,15.2603,0,0,1-4.96681,3.94819,13.17723,13.17723,0,0,1-5.90217,1.39476,13.857,13.857,0,0,1-6.21758-1.39476,14.58229,14.58229,0,0,1-4.89793-3.94819A18.83623,18.83623,0,0,1,83.85853,67.563a25.14907,25.14907,0,0,1-1.16014-7.84391,26.48262,26.48262,0,0,1,1.16014-8.08439,19.09651,19.09651,0,0,1,3.23024-6.20866A14.74333,14.74333,0,0,1,91.9867,41.4254,13.6482,13.6482,0,0,1,98.20428,40a13.90342,13.90342,0,0,1,6.25746,1.42537,14.62182,14.62182,0,0,1,4.94506,4.00066,19.09651,19.09651,0,0,1,3.23024,6.20866A26.48554,26.48554,0,0,1,113.79355,59.71911Zm20.40381-16.49232a8.68867,8.68867,0,0,1,1.64956-1.69208,4.25451,4.25451,0,0,1,2.71906-.78264h10.06777L99.71607,116.66834a5.83552,5.83552,0,0,1-1.66768,1.69208,4.25211,4.25211,0,0,1-2.429.67333h-10.336ZM103.19284,59.71911a22.46472,22.46472,0,0,0-.38066-4.53845,8.917,8.917,0,0,0-1.04412-2.877,3.85424,3.85424,0,0,0-1.58431-1.50408,4.62452,4.62452,0,0,0-1.97947-.42848,4.48634,4.48634,0,0,0-1.96135.42848,3.63312,3.63312,0,0,0-1.51542,1.50408,9.35782,9.35782,0,0,0-.97886,2.877,23.82511,23.82511,0,0,0-.35529,4.53845,21.55838,21.55838,0,0,0,.35529,4.298,8.63072,8.63072,0,0,0,.97886,2.74144,3.70119,3.70119,0,0,0,1.51542,1.4516,4.4862,4.4862,0,0,0,1.96135.42848,4.62437,4.62437,0,0,0,1.97947-.42848,3.94078,3.94078,0,0,0,1.58431-1.4516,8.2405,8.2405,0,0,0,1.04412-2.74144A20.33238,20.33238,0,0,0,103.19284,59.71911ZM151.128,100.66134a22.96607,22.96607,0,0,1-1.29427,7.87014,20.0046,20.0046,0,0,1-3.42964,6.1256,15.2603,15.2603,0,0,1-4.96681,3.94819A13.166,13.166,0,0,1,135.53514,120a13.8306,13.8306,0,0,1-6.214-1.39476,14.55955,14.55955,0,0,1-4.90155-3.94819,18.79378,18.79378,0,0,1-3.23024-6.1256,25.41922,25.41922,0,0,1-1.15651-7.87014,26.51425,26.51425,0,0,1,1.15651-8.08876,19.02886,19.02886,0,0,1,3.23024-6.20429,14.78674,14.78674,0,0,1,4.90155-4.005,13.61942,13.61942,0,0,1,6.214-1.421,13.90034,13.90034,0,0,1,6.25746,1.421,14.652,14.652,0,0,1,4.94506,4.005,19.02906,19.02906,0,0,1,3.23024,6.20429A26.512,26.512,0,0,1,151.128,100.66134Zm-10.60433,0a22.51768,22.51768,0,0,0-.377-4.49035,9.01027,9.01027,0,0,0-1.04774-2.8726,3.81874,3.81874,0,0,0-1.58068-1.50408,4.6289,4.6289,0,0,0-1.9831-.42848,4.4862,4.4862,0,0,0-1.96135.42848,3.58073,3.58073,0,0,0-1.5118,1.50408,9.46067,9.46067,0,0,0-.98248,2.8726,23.86429,23.86429,0,0,0-.35529,4.49035,21.8634,21.8634,0,0,0,.35529,4.298,8.64528,8.64528,0,0,0,.98248,2.73706,3.61749,3.61749,0,0,0,1.5118,1.45161,4.42556,4.42556,0,0,0,1.96135.42848,4.56555,4.56555,0,0,0,1.9831-.42848,3.87147,3.87147,0,0,0,1.58068-1.45161,8.251,8.251,0,0,0,1.04774-2.73706A20.63261,20.63261,0,0,0,140.5237,100.66134Z" style="fill:#5bc6f1"/><path d="M37.952,99.41986a11.14486,11.14486,0,0,1-2.80195-1.2702q-2.63132-1.6506-4.67065-6.11756a48.64276,48.64276,0,0,1-3.26947-12.19586,130.62463,130.62463,0,0,1-1.23279-19.95746,130.77207,130.77207,0,0,1,1.23279-19.91809A48.01065,48.01065,0,0,1,30.4794,27.76483q2.03669-4.42118,4.67065-6.07825A10.07368,10.07368,0,0,1,40.52133,20.036a9.01958,9.01958,0,0,1,1.29083.09845,9.23117,9.23117,0,0,0-2.57373-.38135,10.07364,10.07364,0,0,0-5.37127,1.65058q-2.63133,1.65051-4.67066,6.07824A48.01116,48.01116,0,0,0,25.927,39.6778a130.77188,130.77188,0,0,0-1.23279,19.91809A130.62458,130.62458,0,0,0,25.927,79.55334,48.6434,48.6434,0,0,0,29.1965,91.74921q2.03669,4.47024,4.67066,6.11755A10.48824,10.48824,0,0,0,37.952,99.41986Z" style="fill:#b8e7f9"/><path d="M73.95993,33.24054A59.87858,59.87858,0,0,0,66.3837,14.56689,31.88808,31.88808,0,0,0,54.908,3.58276,29.484,29.484,0,0,0,46.79709.63757a29.57031,29.57031,0,0,1,6.828,2.6623A31.88784,31.88784,0,0,1,65.1008,14.284,59.87861,59.87861,0,0,1,72.677,32.95764a113.9094,113.9094,0,0,1,2.73725,26.63825A113.87048,113.87048,0,0,1,72.677,86.23419a59.81227,59.81227,0,0,1-7.57623,18.67365,32.3137,32.3137,0,0,1-11.47571,11.03,29.62551,29.62551,0,0,1-14.38666,3.62207,30.53706,30.53706,0,0,1-6.18542-.63,30.21756,30.21756,0,0,0,7.46832.91284A29.6254,29.6254,0,0,0,54.908,116.2207a32.31378,32.31378,0,0,0,11.47571-11.03,59.8121,59.8121,0,0,0,7.57623-18.67364,113.87061,113.87061,0,0,0,2.73724-26.63831A113.90936,113.90936,0,0,0,73.95993,33.24054Z" style="fill:#b8e7f9"/><path d="M103.17886,41.14252a14.62038,14.62038,0,0,1,4.945,4.00061,19.09669,19.09669,0,0,1,3.23029,6.20868,26.48555,26.48555,0,0,1,1.15649,8.08441A22.72566,22.72566,0,0,1,111.22,67.28009a20.14434,20.14434,0,0,1-3.42963,6.09937,15.26051,15.26051,0,0,1-4.96679,3.94818,13.177,13.177,0,0,1-5.90222,1.39477,14.99091,14.99091,0,0,1-2.55268-.23395,14.50133,14.50133,0,0,0,3.83557.51685,13.1769,13.1769,0,0,0,5.90223-1.39478,15.26025,15.26025,0,0,0,4.96679-3.94818A20.14438,20.14438,0,0,0,112.5029,67.563a22.72566,22.72566,0,0,0,1.29065-7.84387,26.48535,26.48535,0,0,0-1.1565-8.08442,19.09673,19.09673,0,0,0-3.23028-6.20867,14.62038,14.62038,0,0,0-4.945-4.00061,13.52819,13.52819,0,0,0-3.7323-1.191A13.46645,13.46645,0,0,1,103.17886,41.14252Z" style="fill:#b8e7f9"/><path d="M96.55569,68.31732c-.1026-.03967-.21337-.05975-.31274-.10724a3.70085,3.70085,0,0,1-1.51544-1.4516,8.6303,8.6303,0,0,1-.97888-2.74139,21.56,21.56,0,0,1-.35529-4.298,23.82665,23.82665,0,0,1,.35529-4.53846,9.35819,9.35819,0,0,1,.97888-2.877,3.63315,3.63315,0,0,1,1.51544-1.504,4.48548,4.48548,0,0,1,1.9613-.42853c.13276,0,.25483.03022.384.04023a4.63837,4.63837,0,0,0-1.66687-.32312,4.48551,4.48551,0,0,0-1.96131.42852,3.6332,3.6332,0,0,0-1.51544,1.504,9.35816,9.35816,0,0,0-.97888,2.877,23.82646,23.82646,0,0,0-.35529,4.53845,21.56,21.56,0,0,0,.35529,4.298,8.63046,8.63046,0,0,0,.97888,2.7414,3.701,3.701,0,0,0,1.51544,1.4516A4.42323,4.42323,0,0,0,96.55569,68.31732Z" style="fill:#b8e7f9"/><path d="M147.16855,40.75208,98.4332,116.38544a5.83565,5.83565,0,0,1-1.66773,1.69207,4.25213,4.25213,0,0,1-2.429.67334H85.46585l-.18256.2829H95.61935a4.25219,4.25219,0,0,0,2.429-.67334,5.83553,5.83553,0,0,0,1.66772-1.69208l48.91767-75.91625Z" style="fill:#b8e7f9"/><path d="M133.88669,109.25574c-.10266-.04-.2135-.05957-.31293-.10779a3.6177,3.6177,0,0,1-1.51178-1.4516,8.64433,8.64433,0,0,1-.98248-2.73706,21.86333,21.86333,0,0,1-.35529-4.298,23.86425,23.86425,0,0,1,.35529-4.49036,9.46086,9.46086,0,0,1,.98248-2.87262,3.581,3.581,0,0,1,1.51178-1.504,4.48594,4.48594,0,0,1,1.96137-.42853c.13452,0,.25775.0304.38842.04059a4.64333,4.64333,0,0,0-1.67132-.32348,4.486,4.486,0,0,0-1.96137.42852,3.581,3.581,0,0,0-1.51178,1.504,9.46086,9.46086,0,0,0-.98248,2.87262,23.86425,23.86425,0,0,0-.35529,4.49036,21.86333,21.86333,0,0,0,.35529,4.298,8.64433,8.64433,0,0,0,.98248,2.73706,3.6177,3.6177,0,0,0,1.51178,1.4516A4.33559,4.33559,0,0,0,133.88669,109.25574Z" style="fill:#b8e7f9"/><path d="M149.96793,92.57257a19.02888,19.02888,0,0,0-3.23029-6.20428,14.65244,14.65244,0,0,0-4.94507-4.00507,13.48043,13.48043,0,0,0-3.72186-1.1864,13.39177,13.39177,0,0,1,2.439.9035,14.65246,14.65246,0,0,1,4.94507,4.00507,19.029,19.029,0,0,1,3.23029,6.20428,26.51389,26.51389,0,0,1,1.16009,8.08875,22.9661,22.9661,0,0,1-1.29425,7.87018,20.00618,20.00618,0,0,1-3.42962,6.12555,15.25945,15.25945,0,0,1-4.96686,3.94818,13.16557,13.16557,0,0,1-5.90216,1.39477,14.98925,14.98925,0,0,1-2.551-.2337,14.48982,14.48982,0,0,0,3.83393.5166,13.16548,13.16548,0,0,0,5.90216-1.39478,15.259,15.259,0,0,0,4.96685-3.94818,20.00576,20.00576,0,0,0,3.42963-6.12555,22.96624,22.96624,0,0,0,1.29425-7.87017A26.51389,26.51389,0,0,0,149.96793,92.57257Z" style="fill:#b8e7f9"/></svg>