<?xml version="1.0" encoding="UTF-8" standalone="no"?>
<!-- Created with Inkscape (http://www.inkscape.org/) -->

<svg
   xmlns:dc="http://purl.org/dc/elements/1.1/"
   xmlns:cc="http://creativecommons.org/ns#"
   xmlns:rdf="http://www.w3.org/1999/02/22-rdf-syntax-ns#"
   xmlns:svg="http://www.w3.org/2000/svg"
   xmlns="http://www.w3.org/2000/svg"
   version="1.1"
   width="375"
   height="375"
   id="svg2"
   xml:space="preserve"><metadata
     id="metadata8"><rdf:RDF><cc:Work
         rdf:about=""><dc:format>image/svg+xml</dc:format><dc:type
           rdf:resource="http://purl.org/dc/dcmitype/StillImage" /><dc:title></dc:title></cc:Work></rdf:RDF></metadata><defs
     id="defs6"><clipPath
       id="clipPath16"><path
         d="M 150,300 C 67.157,300 0,232.843 0,150 l 0,0 C 0,67.157 67.157,0 150,0 l 0,0 c 82.843,0 150,67.157 150,150 l 0,0 c 0,82.843 -67.157,150 -150,150 z"
         id="path18" /></clipPath></defs><g
     transform="matrix(1.25,0,0,-1.25,0,375)"
     id="g10"><g
       id="g12"><g
         clip-path="url(#clipPath16)"
         id="g14"><path
           d="M 0,300 570,300 570,0 0,0 0,300 z"
           id="path20"
           style="fill:#ffffff;fill-opacity:1;fill-rule:nonzero;stroke:none" /><path
           d="m 0,300 570,0 0,-23.077 -570,0 L 0,300 z"
           id="path22"
           style="fill:#b22234;fill-opacity:1;fill-rule:nonzero;stroke:none" /><path
           d="m 0,253.846 570,0 0,-23.077 -570,0 0,23.077 z"
           id="path24"
           style="fill:#b22234;fill-opacity:1;fill-rule:nonzero;stroke:none" /><path
           d="m 0,207.692 570,0 0,-23.077 -570,0 0,23.077 z"
           id="path26"
           style="fill:#b22234;fill-opacity:1;fill-rule:nonzero;stroke:none" /><path
           d="m 0,161.538 570,0 0,-23.077 -570,0 0,23.077 z"
           id="path28"
           style="fill:#b22234;fill-opacity:1;fill-rule:nonzero;stroke:none" /><path
           d="m 0,115.385 570,0 0,-23.076 -570,0 0,23.076 z"
           id="path30"
           style="fill:#b22234;fill-opacity:1;fill-rule:nonzero;stroke:none" /><path
           d="m 0,69.231 570,0 0,-23.077 -570,0 0,23.077 z"
           id="path32"
           style="fill:#b22234;fill-opacity:1;fill-rule:nonzero;stroke:none" /><path
           d="m 0,23.077 570,0 L 570,0 0,0 0,23.077 z"
           id="path34"
           style="fill:#b22234;fill-opacity:1;fill-rule:nonzero;stroke:none" /><path
           d="m 0,300 228,0 0,-161.538 -228,0 L 0,300 z"
           id="path36"
           style="fill:#3c3b6e;fill-opacity:1;fill-rule:nonzero;stroke:none" /><g
           transform="translate(10.7119,286.8859)"
           id="g38"><path
             d="m 0,0 5.431,-3.946 -2.074,-6.385 5.431,3.946 5.431,-3.946 -2.075,6.385 L 17.575,0 10.862,0 8.788,6.385 6.713,0 0,0 z"
             id="path40"
             style="fill:#ffffff;fill-opacity:1;fill-rule:nonzero;stroke:none" /></g><g
           transform="translate(48.5118,286.8859)"
           id="g42"><path
             d="m 0,0 5.431,-3.946 -2.074,-6.385 5.431,3.946 5.431,-3.946 -2.075,6.385 L 17.575,0 10.862,0 8.788,6.385 6.713,0 0,0 z"
             id="path44"
             style="fill:#ffffff;fill-opacity:1;fill-rule:nonzero;stroke:none" /></g><g
           transform="translate(86.312,286.8859)"
           id="g46"><path
             d="m 0,0 5.431,-3.946 -2.074,-6.385 5.431,3.946 5.431,-3.946 -2.075,6.385 L 17.575,0 10.862,0 8.788,6.385 6.713,0 0,0 z"
             id="path48"
             style="fill:#ffffff;fill-opacity:1;fill-rule:nonzero;stroke:none" /></g><g
           transform="translate(124.1122,286.8859)"
           id="g50"><path
             d="m 0,0 5.431,-3.946 -2.074,-6.385 5.431,3.946 5.431,-3.946 -2.075,6.385 L 17.575,0 10.862,0 8.788,6.385 6.713,0 0,0 z"
             id="path52"
             style="fill:#ffffff;fill-opacity:1;fill-rule:nonzero;stroke:none" /></g><g
           transform="translate(161.9118,286.8859)"
           id="g54"><path
             d="m 0,0 5.431,-3.946 -2.074,-6.385 5.431,3.946 5.431,-3.946 -2.075,6.385 L 17.575,0 10.862,0 8.788,6.385 6.713,0 0,0 z"
             id="path56"
             style="fill:#ffffff;fill-opacity:1;fill-rule:nonzero;stroke:none" /></g><g
           transform="translate(199.7117,286.8859)"
           id="g58"><path
             d="m 0,0 5.431,-3.946 -2.074,-6.385 5.431,3.946 5.431,-3.946 -2.075,6.385 L 17.575,0 10.862,0 8.788,6.385 6.713,0 0,0 z"
             id="path60"
             style="fill:#ffffff;fill-opacity:1;fill-rule:nonzero;stroke:none" /></g><g
           transform="translate(29.6117,270.6857)"
           id="g62"><path
             d="m 0,0 5.431,-3.946 -2.074,-6.385 5.431,3.946 5.431,-3.946 -2.075,6.385 L 17.575,0 10.862,0 8.788,6.385 6.713,0 0,0 z"
             id="path64"
             style="fill:#ffffff;fill-opacity:1;fill-rule:nonzero;stroke:none" /></g><g
           transform="translate(67.4118,270.6857)"
           id="g66"><path
             d="m 0,0 5.431,-3.946 -2.074,-6.385 5.431,3.946 5.431,-3.946 -2.075,6.385 L 17.575,0 10.862,0 8.788,6.385 6.713,0 0,0 z"
             id="path68"
             style="fill:#ffffff;fill-opacity:1;fill-rule:nonzero;stroke:none" /></g><g
           transform="translate(105.212,270.6857)"
           id="g70"><path
             d="m 0,0 5.431,-3.946 -2.074,-6.385 5.431,3.946 5.431,-3.946 -2.075,6.385 L 17.575,0 10.862,0 8.788,6.385 6.713,0 0,0 z"
             id="path72"
             style="fill:#ffffff;fill-opacity:1;fill-rule:nonzero;stroke:none" /></g><g
           transform="translate(143.0117,270.6857)"
           id="g74"><path
             d="m 0,0 5.431,-3.946 -2.074,-6.385 5.431,3.946 5.431,-3.946 -2.075,6.385 L 17.575,0 10.862,0 8.788,6.385 6.713,0 0,0 z"
             id="path76"
             style="fill:#ffffff;fill-opacity:1;fill-rule:nonzero;stroke:none" /></g><g
           transform="translate(180.8115,270.6857)"
           id="g78"><path
             d="m 0,0 5.431,-3.946 -2.074,-6.385 5.431,3.946 5.431,-3.946 -2.075,6.385 L 17.575,0 10.862,0 8.788,6.385 6.713,0 0,0 z"
             id="path80"
             style="fill:#ffffff;fill-opacity:1;fill-rule:nonzero;stroke:none" /></g><g
           transform="translate(10.7119,254.4854)"
           id="g82"><path
             d="m 0,0 5.431,-3.946 -2.074,-6.385 5.431,3.946 5.431,-3.946 -2.075,6.385 L 17.575,0 10.862,0 8.788,6.385 6.713,0 0,0 z"
             id="path84"
             style="fill:#ffffff;fill-opacity:1;fill-rule:nonzero;stroke:none" /></g><g
           transform="translate(48.5118,254.4854)"
           id="g86"><path
             d="m 0,0 5.431,-3.946 -2.074,-6.385 5.431,3.946 5.431,-3.946 -2.075,6.385 L 17.575,0 10.862,0 8.788,6.385 6.713,0 0,0 z"
             id="path88"
             style="fill:#ffffff;fill-opacity:1;fill-rule:nonzero;stroke:none" /></g><g
           transform="translate(86.312,254.4854)"
           id="g90"><path
             d="m 0,0 5.431,-3.946 -2.074,-6.385 5.431,3.946 5.431,-3.946 -2.075,6.385 L 17.575,0 10.862,0 8.788,6.385 6.713,0 0,0 z"
             id="path92"
             style="fill:#ffffff;fill-opacity:1;fill-rule:nonzero;stroke:none" /></g><g
           transform="translate(124.1122,254.4854)"
           id="g94"><path
             d="m 0,0 5.431,-3.946 -2.074,-6.385 5.431,3.946 5.431,-3.946 -2.075,6.385 L 17.575,0 10.862,0 8.788,6.385 6.713,0 0,0 z"
             id="path96"
             style="fill:#ffffff;fill-opacity:1;fill-rule:nonzero;stroke:none" /></g><g
           transform="translate(161.9118,254.4854)"
           id="g98"><path
             d="m 0,0 5.431,-3.946 -2.074,-6.385 5.431,3.946 5.431,-3.946 -2.075,6.385 L 17.575,0 10.862,0 8.788,6.385 6.713,0 0,0 z"
             id="path100"
             style="fill:#ffffff;fill-opacity:1;fill-rule:nonzero;stroke:none" /></g><g
           transform="translate(199.7117,254.4854)"
           id="g102"><path
             d="m 0,0 5.431,-3.946 -2.074,-6.385 5.431,3.946 5.431,-3.946 -2.075,6.385 L 17.575,0 10.862,0 8.788,6.385 6.713,0 0,0 z"
             id="path104"
             style="fill:#ffffff;fill-opacity:1;fill-rule:nonzero;stroke:none" /></g><g
           transform="translate(30.078,238.232)"
           id="g106"><path
             d="m 0,0 5.431,-3.946 -2.074,-6.385 5.431,3.946 5.431,-3.946 -2.075,6.385 L 17.575,0 10.862,0 8.788,6.385 6.713,0 0,0 z"
             id="path108"
             style="fill:#ffffff;fill-opacity:1;fill-rule:nonzero;stroke:none" /></g><g
           transform="translate(67.8782,238.232)"
           id="g110"><path
             d="m 0,0 5.431,-3.946 -2.074,-6.385 5.431,3.946 5.431,-3.946 -2.075,6.385 L 17.575,0 10.862,0 8.788,6.385 6.713,0 0,0 z"
             id="path112"
             style="fill:#ffffff;fill-opacity:1;fill-rule:nonzero;stroke:none" /></g><g
           transform="translate(105.6784,238.232)"
           id="g114"><path
             d="m 0,0 5.431,-3.946 -2.074,-6.385 5.431,3.946 5.431,-3.946 -2.075,6.385 L 17.575,0 10.862,0 8.788,6.385 6.713,0 0,0 z"
             id="path116"
             style="fill:#ffffff;fill-opacity:1;fill-rule:nonzero;stroke:none" /></g><g
           transform="translate(143.478,238.232)"
           id="g118"><path
             d="m 0,0 5.431,-3.946 -2.074,-6.385 5.431,3.946 5.431,-3.946 -2.075,6.385 L 17.575,0 10.862,0 8.788,6.385 6.713,0 0,0 z"
             id="path120"
             style="fill:#ffffff;fill-opacity:1;fill-rule:nonzero;stroke:none" /></g><g
           transform="translate(181.2779,238.232)"
           id="g122"><path
             d="m 0,0 5.431,-3.946 -2.074,-6.385 5.431,3.946 5.431,-3.946 -2.075,6.385 L 17.575,0 10.862,0 8.788,6.385 6.713,0 0,0 z"
             id="path124"
             style="fill:#ffffff;fill-opacity:1;fill-rule:nonzero;stroke:none" /></g><g
           transform="translate(11.2855,222.1677)"
           id="g126"><path
             d="m 0,0 5.431,-3.946 -2.074,-6.385 5.431,3.946 5.431,-3.946 -2.075,6.385 L 17.575,0 10.862,0 8.788,6.385 6.713,0 0,0 z"
             id="path128"
             style="fill:#ffffff;fill-opacity:1;fill-rule:nonzero;stroke:none" /></g><g
           transform="translate(49.0854,222.1677)"
           id="g130"><path
             d="m 0,0 5.431,-3.946 -2.074,-6.385 5.431,3.946 5.431,-3.946 -2.075,6.385 L 17.575,0 10.862,0 8.788,6.385 6.713,0 0,0 z"
             id="path132"
             style="fill:#ffffff;fill-opacity:1;fill-rule:nonzero;stroke:none" /></g><g
           transform="translate(86.8855,222.1677)"
           id="g134"><path
             d="m 0,0 5.431,-3.946 -2.074,-6.385 5.431,3.946 5.431,-3.946 -2.075,6.385 L 17.575,0 10.862,0 8.788,6.385 6.713,0 0,0 z"
             id="path136"
             style="fill:#ffffff;fill-opacity:1;fill-rule:nonzero;stroke:none" /></g><g
           transform="translate(124.6857,222.1677)"
           id="g138"><path
             d="m 0,0 5.431,-3.946 -2.074,-6.385 5.431,3.946 5.431,-3.946 -2.075,6.385 L 17.575,0 10.862,0 8.788,6.385 6.713,0 0,0 z"
             id="path140"
             style="fill:#ffffff;fill-opacity:1;fill-rule:nonzero;stroke:none" /></g><g
           transform="translate(162.4854,222.1677)"
           id="g142"><path
             d="m 0,0 5.431,-3.946 -2.074,-6.385 5.431,3.946 5.431,-3.946 -2.075,6.385 L 17.575,0 10.862,0 8.788,6.385 6.713,0 0,0 z"
             id="path144"
             style="fill:#ffffff;fill-opacity:1;fill-rule:nonzero;stroke:none" /></g><g
           transform="translate(200.2852,222.1677)"
           id="g146"><path
             d="m 0,0 5.431,-3.946 -2.074,-6.385 5.431,3.946 5.431,-3.946 -2.075,6.385 L 17.575,0 10.862,0 8.788,6.385 6.713,0 0,0 z"
             id="path148"
             style="fill:#ffffff;fill-opacity:1;fill-rule:nonzero;stroke:none" /></g><g
           transform="translate(11.6397,190.2803)"
           id="g150"><path
             d="m 0,0 5.431,-3.946 -2.074,-6.385 5.431,3.946 5.431,-3.946 -2.075,6.385 L 17.575,0 10.862,0 8.788,6.385 6.713,0 0,0 z"
             id="path152"
             style="fill:#ffffff;fill-opacity:1;fill-rule:nonzero;stroke:none" /></g><g
           transform="translate(49.4396,190.2803)"
           id="g154"><path
             d="m 0,0 5.431,-3.946 -2.074,-6.385 5.431,3.946 5.431,-3.946 -2.075,6.385 L 17.575,0 10.862,0 8.788,6.385 6.713,0 0,0 z"
             id="path156"
             style="fill:#ffffff;fill-opacity:1;fill-rule:nonzero;stroke:none" /></g><g
           transform="translate(87.2397,190.2803)"
           id="g158"><path
             d="m 0,0 5.431,-3.946 -2.074,-6.385 5.431,3.946 5.431,-3.946 -2.075,6.385 L 17.575,0 10.862,0 8.788,6.385 6.713,0 0,0 z"
             id="path160"
             style="fill:#ffffff;fill-opacity:1;fill-rule:nonzero;stroke:none" /></g><g
           transform="translate(125.0399,190.2803)"
           id="g162"><path
             d="m 0,0 5.431,-3.946 -2.074,-6.385 5.431,3.946 5.431,-3.946 -2.075,6.385 L 17.575,0 10.862,0 8.788,6.385 6.713,0 0,0 z"
             id="path164"
             style="fill:#ffffff;fill-opacity:1;fill-rule:nonzero;stroke:none" /></g><g
           transform="translate(162.8396,190.2803)"
           id="g166"><path
             d="m 0,0 5.431,-3.946 -2.074,-6.385 5.431,3.946 5.431,-3.946 -2.075,6.385 L 17.575,0 10.862,0 8.788,6.385 6.713,0 0,0 z"
             id="path168"
             style="fill:#ffffff;fill-opacity:1;fill-rule:nonzero;stroke:none" /></g><g
           transform="translate(200.6394,190.2803)"
           id="g170"><path
             d="m 0,0 5.431,-3.946 -2.074,-6.385 5.431,3.946 5.431,-3.946 -2.075,6.385 L 17.575,0 10.862,0 8.788,6.385 6.713,0 0,0 z"
             id="path172"
             style="fill:#ffffff;fill-opacity:1;fill-rule:nonzero;stroke:none" /></g><g
           transform="translate(11.178,158.0182)"
           id="g174"><path
             d="m 0,0 5.431,-3.946 -2.074,-6.385 5.431,3.946 5.431,-3.946 -2.075,6.385 L 17.575,0 10.862,0 8.788,6.385 6.713,0 0,0 z"
             id="path176"
             style="fill:#ffffff;fill-opacity:1;fill-rule:nonzero;stroke:none" /></g><g
           transform="translate(48.9779,158.0182)"
           id="g178"><path
             d="m 0,0 5.431,-3.946 -2.074,-6.385 5.431,3.946 5.431,-3.946 -2.075,6.385 L 17.575,0 10.862,0 8.788,6.385 6.713,0 0,0 z"
             id="path180"
             style="fill:#ffffff;fill-opacity:1;fill-rule:nonzero;stroke:none" /></g><g
           transform="translate(86.778,158.0182)"
           id="g182"><path
             d="m 0,0 5.431,-3.946 -2.074,-6.385 5.431,3.946 5.431,-3.946 -2.075,6.385 L 17.575,0 10.862,0 8.788,6.385 6.713,0 0,0 z"
             id="path184"
             style="fill:#ffffff;fill-opacity:1;fill-rule:nonzero;stroke:none" /></g><g
           transform="translate(124.5782,158.0182)"
           id="g186"><path
             d="m 0,0 5.431,-3.946 -2.074,-6.385 5.431,3.946 5.431,-3.946 -2.075,6.385 L 17.575,0 10.862,0 8.788,6.385 6.713,0 0,0 z"
             id="path188"
             style="fill:#ffffff;fill-opacity:1;fill-rule:nonzero;stroke:none" /></g><g
           transform="translate(162.3779,158.0182)"
           id="g190"><path
             d="m 0,0 5.431,-3.946 -2.074,-6.385 5.431,3.946 5.431,-3.946 -2.075,6.385 L 17.575,0 10.862,0 8.788,6.385 6.713,0 0,0 z"
             id="path192"
             style="fill:#ffffff;fill-opacity:1;fill-rule:nonzero;stroke:none" /></g><g
           transform="translate(200.1777,158.0182)"
           id="g194"><path
             d="m 0,0 5.431,-3.946 -2.074,-6.385 5.431,3.946 5.431,-3.946 -2.075,6.385 L 17.575,0 10.862,0 8.788,6.385 6.713,0 0,0 z"
             id="path196"
             style="fill:#ffffff;fill-opacity:1;fill-rule:nonzero;stroke:none" /></g><g
           transform="translate(30.1903,206.3841)"
           id="g198"><path
             d="m 0,0 5.431,-3.946 -2.074,-6.385 5.431,3.946 5.431,-3.946 -2.075,6.385 L 17.575,0 10.862,0 8.788,6.385 6.713,0 0,0 z"
             id="path200"
             style="fill:#ffffff;fill-opacity:1;fill-rule:nonzero;stroke:none" /></g><g
           transform="translate(67.9904,206.3841)"
           id="g202"><path
             d="m 0,0 5.431,-3.946 -2.074,-6.385 5.431,3.946 5.431,-3.946 -2.075,6.385 L 17.575,0 10.862,0 8.788,6.385 6.713,0 0,0 z"
             id="path204"
             style="fill:#ffffff;fill-opacity:1;fill-rule:nonzero;stroke:none" /></g><g
           transform="translate(105.7906,206.3841)"
           id="g206"><path
             d="m 0,0 5.431,-3.946 -2.074,-6.385 5.431,3.946 5.431,-3.946 -2.075,6.385 L 17.575,0 10.862,0 8.788,6.385 6.713,0 0,0 z"
             id="path208"
             style="fill:#ffffff;fill-opacity:1;fill-rule:nonzero;stroke:none" /></g><g
           transform="translate(143.5903,206.3841)"
           id="g210"><path
             d="m 0,0 5.431,-3.946 -2.074,-6.385 5.431,3.946 5.431,-3.946 -2.075,6.385 L 17.575,0 10.862,0 8.788,6.385 6.713,0 0,0 z"
             id="path212"
             style="fill:#ffffff;fill-opacity:1;fill-rule:nonzero;stroke:none" /></g><g
           transform="translate(181.3901,206.3841)"
           id="g214"><path
             d="m 0,0 5.431,-3.946 -2.074,-6.385 5.431,3.946 5.431,-3.946 -2.075,6.385 L 17.575,0 10.862,0 8.788,6.385 6.713,0 0,0 z"
             id="path216"
             style="fill:#ffffff;fill-opacity:1;fill-rule:nonzero;stroke:none" /></g><g
           transform="translate(30.0784,174.1721)"
           id="g218"><path
             d="m 0,0 5.431,-3.946 -2.074,-6.385 5.431,3.946 5.431,-3.946 -2.075,6.385 L 17.575,0 10.862,0 8.788,6.385 6.713,0 0,0 z"
             id="path220"
             style="fill:#ffffff;fill-opacity:1;fill-rule:nonzero;stroke:none" /></g><g
           transform="translate(67.8785,174.1721)"
           id="g222"><path
             d="m 0,0 5.431,-3.946 -2.074,-6.385 5.431,3.946 5.431,-3.946 -2.075,6.385 L 17.575,0 10.862,0 8.788,6.385 6.713,0 0,0 z"
             id="path224"
             style="fill:#ffffff;fill-opacity:1;fill-rule:nonzero;stroke:none" /></g><g
           transform="translate(105.6787,174.1721)"
           id="g226"><path
             d="m 0,0 5.431,-3.946 -2.074,-6.385 5.431,3.946 5.431,-3.946 -2.075,6.385 L 17.575,0 10.862,0 8.788,6.385 6.713,0 0,0 z"
             id="path228"
             style="fill:#ffffff;fill-opacity:1;fill-rule:nonzero;stroke:none" /></g><g
           transform="translate(143.4784,174.1721)"
           id="g230"><path
             d="m 0,0 5.431,-3.946 -2.074,-6.385 5.431,3.946 5.431,-3.946 -2.075,6.385 L 17.575,0 10.862,0 8.788,6.385 6.713,0 0,0 z"
             id="path232"
             style="fill:#ffffff;fill-opacity:1;fill-rule:nonzero;stroke:none" /></g><g
           transform="translate(181.2782,174.1721)"
           id="g234"><path
             d="m 0,0 5.431,-3.946 -2.074,-6.385 5.431,3.946 5.431,-3.946 -2.075,6.385 L 17.575,0 10.862,0 8.788,6.385 6.713,0 0,0 z"
             id="path236"
             style="fill:#ffffff;fill-opacity:1;fill-rule:nonzero;stroke:none" /></g></g></g></g></svg>